{"title":"CID [12.03.2011] PDTV 360p [rahultorrents]","uid":6239779,"size":212267888,"categoryP":"video","categoryS":"tv_shows","magnet":"?xt=urn:btih:904a91e8cdec2ffe7b58d811e0cc909a418dcadd&amp;dn=CID+%5B12.03.2011%5D+PDTV+360p+%5Brahultorrents%5D&amp;tr=udp%3A%2F%2Ftracker.openbittorrent.com%3A80&amp;tr=udp%3A%2F%2Fopen.demonii.com%3A1337&amp;tr=udp%3A%2F%2Ftracker.coppersurfer.tk%3A6969&amp;tr=udp%3A%2F%2Fexodus.desync.com%3A6969","seeders":0,"leechers":1,"uploader":"rahulro","files":5,"time":1300022075,"description":"Plot:\nThe best investigation show sucessfully running on television for last 11 years in India.\n\nGeneral:\nFormat : Windows Media\nFile size : 201 MiB\nDuration : 48mn 22s\nOverall bit rate mode : Constant\nOverall bit rate : 581 Kbps\nMaximum Overall bit rate : 585 Kbps\n\nVideo\nID : 2\nFormat : VC-1\nFormat profile : MP@ML\nCodec ID : WMV3\nCodec ID/Info : Windows Media Video 9\nCodec ID/Hint : WMV3\nDescription of the codec : Windows Media Video 9\nDuration : 48mn 22s\nBit rate mode : Constant\nBit rate : 512 Kbps\nWidth : 640 pixels\nHeight : 480 pixels\nDisplay aspect ratio : 4:3\nFrame rate : 30.000 fps\nBit depth : 8 bits\nScan type : Progressive\nCompression mode : Lossy\nBits/(Pixel*Frame) : 0.056\nStream size : 177 MiB (88%)\nLanguage : English (US)\n\nAudio\nID : 1\nFormat : WMA\nFormat version : Version 2\nCodec ID : 161\nCodec ID/Info : Windows Media Audio\nDescription of the codec : Windows Media Audio 9.1 - 64 kbps, 44 kHz, stereo (A/V) 1-pass CBR\nDuration : 48mn 22s\nBit rate mode : Constant\nBit rate : 64.0 Kbps\nChannel(s) : 2 channels\nSampling rate : 44.1 KHz\nBit depth : 16 bits\nStream size : 22.2 MiB (11%)\nLanguage : Hindi","torrent":{"xt":"urn:btih:904a91e8cdec2ffe7b58d811e0cc909a418dcadd","amp;dn":"CID+%5B12.03.2011%5D+PDTV+360p+%5Brahultorrents%5D","amp;tr":["udp%3A%2F%2Ftracker.openbittorrent.com%3A80","udp%3A%2F%2Fopen.demonii.com%3A1337","udp%3A%2F%2Ftracker.coppersurfer.tk%3A6969","udp%3A%2F%2Fexodus.desync.com%3A6969"],"infoHash":"904a91e8cdec2ffe7b58d811e0cc909a418dcadd","infoHashBuffer":{"type":"Buffer","data":[144,74,145,232,205,236,47,254,123,88,216,17,224,204,144,154,65,141,202,221]},"announce":[],"urlList":[]}}